<?xml version="1.0"?>
<!-- Generated by SVGo -->
<svg width="1024" height="351"
     xmlns="http://www.w3.org/2000/svg"
     xmlns:xlink="http://www.w3.org/1999/xlink">
<rect x="0" y="0" width="1024" height="351" style="fill:white;stroke-width:2px;stroke:lightgray"/>
<g style="font-size:20px;font-family:sans-serif">
<text x="100" y="50" style="font-size:150%">Lab1 &amp; Lab2 comparison</text>
<g style="font-style:italic;font-size:75%">
<rect x="612" y="118" width="68" height="20" style="fill-opacity:0.3;fill:green"/>
<text x="685" y="133" style="text-anchor:start">-22.71%</text>
</g>
<text x="100" y="138" style="text-anchor:start">BenchmarkSingle-8</text>
<g style="font-style:italic;font-size:75%">
<rect x="612" y="144" width="67" height="20" style="fill-opacity:0.3;fill:green"/>
<text x="684" y="159" style="text-anchor:start">-22.45%</text>
</g>
<text x="100" y="164" style="text-anchor:start">BenchmarkFrequent-8</text>
<g style="font-style:italic;font-size:75%">
<rect x="612" y="170" width="68" height="20" style="fill-opacity:0.3;fill:green"/>
<text x="685" y="185" style="text-anchor:start">-22.75%</text>
</g>
<text x="100" y="190" style="text-anchor:start">BenchmarkAbsent-8</text>
<g style="font-style:italic;font-size:75%">
<rect x="612" y="196" width="68" height="20" style="fill-opacity:0.3;fill:green"/>
<text x="685" y="211" style="text-anchor:start">-22.81%</text>
</g>
<text x="100" y="216" style="text-anchor:start">BenchmarkFrequentLetter-8</text>
<g style="font-style:italic;font-size:75%">
<rect x="604" y="222" width="8" height="20" style="fill-opacity:0.3;fill:red"/>
<text x="599" y="237" style="text-anchor:end">+2.74%</text>
</g>
<text x="100" y="242" style="text-anchor:start">BenchmarkSingle100-8</text>
<g style="font-style:italic;font-size:75%">
<rect x="602" y="248" width="10" height="20" style="fill-opacity:0.3;fill:red"/>
<text x="597" y="263" style="text-anchor:end">+3.51%</text>
</g>
<text x="100" y="268" style="text-anchor:start">BenchmarkFrequent100-8</text>
<g style="font-style:italic;font-size:75%">
<rect x="599" y="274" width="13" height="20" style="fill-opacity:0.3;fill:red"/>
<text x="594" y="289" style="text-anchor:end">+4.45%</text>
</g>
<text x="100" y="294" style="text-anchor:start">BenchmarkAbsent100-8</text>
<g style="font-style:italic;font-size:75%">
<rect x="610" y="300" width="2" height="20" style="fill-opacity:0.3;fill:red"/>
<text x="605" y="315" style="text-anchor:end">+0.75%</text>
</g>
<text x="100" y="320" style="text-anchor:start">BenchmarkFrequentLetter100-8</text>
</g>
</svg>
