<?xml version="1.0"?>
<!-- Generated by SVGo -->
<svg width="1024" height="351"
     xmlns="http://www.w3.org/2000/svg"
     xmlns:xlink="http://www.w3.org/1999/xlink">
<rect x="0" y="0" width="1024" height="351" style="fill:white;stroke-width:2px;stroke:lightgray"/>
<g style="font-size:20px;font-family:sans-serif">
<text x="100" y="50" style="font-size:150%">Lab1 &amp; Lab3 comparison</text>
<g style="font-style:italic;font-size:75%">
<rect x="554" y="118" width="58" height="20" style="fill-opacity:0.3;fill:red"/>
<text x="549" y="133" style="text-anchor:end">+146.32%</text>
</g>
<text x="100" y="138" style="text-anchor:start">BenchmarkSingle-8</text>
<g style="font-style:italic;font-size:75%">
<rect x="558" y="144" width="54" height="20" style="fill-opacity:0.3;fill:red"/>
<text x="553" y="159" style="text-anchor:end">+136.49%</text>
</g>
<text x="100" y="164" style="text-anchor:start">BenchmarkFrequent-8</text>
<g style="font-style:italic;font-size:75%">
<rect x="557" y="170" width="55" height="20" style="fill-opacity:0.3;fill:red"/>
<text x="552" y="185" style="text-anchor:end">+139.99%</text>
</g>
<text x="100" y="190" style="text-anchor:start">BenchmarkAbsent-8</text>
<g style="font-style:italic;font-size:75%">
<rect x="559" y="196" width="53" height="20" style="fill-opacity:0.3;fill:red"/>
<text x="554" y="211" style="text-anchor:end">+133.00%</text>
</g>
<text x="100" y="216" style="text-anchor:start">BenchmarkFrequentLetter-8</text>
<g style="font-style:italic;font-size:75%">
<rect x="612" y="222" width="15" height="20" style="fill-opacity:0.3;fill:green"/>
<text x="632" y="237" style="text-anchor:start">-39.97%</text>
</g>
<text x="100" y="242" style="text-anchor:start">BenchmarkSingle100-8</text>
<g style="font-style:italic;font-size:75%">
<rect x="612" y="248" width="15" height="20" style="fill-opacity:0.3;fill:green"/>
<text x="632" y="263" style="text-anchor:start">-39.54%</text>
</g>
<text x="100" y="268" style="text-anchor:start">BenchmarkFrequent100-8</text>
<g style="font-style:italic;font-size:75%">
<rect x="612" y="274" width="15" height="20" style="fill-opacity:0.3;fill:green"/>
<text x="632" y="289" style="text-anchor:start">-39.63%</text>
</g>
<text x="100" y="294" style="text-anchor:start">BenchmarkAbsent100-8</text>
<g style="font-style:italic;font-size:75%">
<rect x="612" y="300" width="16" height="20" style="fill-opacity:0.3;fill:green"/>
<text x="633" y="315" style="text-anchor:start">-40.96%</text>
</g>
<text x="100" y="320" style="text-anchor:start">BenchmarkFrequentLetter100-8</text>
</g>
</svg>
