<?xml version="1.0"?>
<!-- Generated by SVGo -->
<svg width="1024" height="351"
     xmlns="http://www.w3.org/2000/svg"
     xmlns:xlink="http://www.w3.org/1999/xlink">
<rect x="0" y="0" width="1024" height="351" style="fill:white;stroke-width:2px;stroke:lightgray"/>
<g style="font-size:20px;font-family:sans-serif">
<text x="100" y="50" style="font-size:150%">Lab2 &amp; Lab3 comparison</text>
<g style="font-style:italic;font-size:75%">
<rect x="525" y="118" width="87" height="20" style="fill-opacity:0.3;fill:red"/>
<text x="520" y="133" style="text-anchor:end">+218.70%</text>
</g>
<text x="100" y="138" style="text-anchor:start">BenchmarkSingle-8</text>
<g style="font-style:italic;font-size:75%">
<rect x="531" y="144" width="81" height="20" style="fill-opacity:0.3;fill:red"/>
<text x="526" y="159" style="text-anchor:end">+204.94%</text>
</g>
<text x="100" y="164" style="text-anchor:start">BenchmarkFrequent-8</text>
<g style="font-style:italic;font-size:75%">
<rect x="528" y="170" width="84" height="20" style="fill-opacity:0.3;fill:red"/>
<text x="523" y="185" style="text-anchor:end">+210.65%</text>
</g>
<text x="100" y="190" style="text-anchor:start">BenchmarkAbsent-8</text>
<g style="font-style:italic;font-size:75%">
<rect x="532" y="196" width="80" height="20" style="fill-opacity:0.3;fill:red"/>
<text x="527" y="211" style="text-anchor:end">+201.85%</text>
</g>
<text x="100" y="216" style="text-anchor:start">BenchmarkFrequentLetter-8</text>
<g style="font-style:italic;font-size:75%">
<rect x="612" y="222" width="16" height="20" style="fill-opacity:0.3;fill:green"/>
<text x="633" y="237" style="text-anchor:start">-41.57%</text>
</g>
<text x="100" y="242" style="text-anchor:start">BenchmarkSingle100-8</text>
<g style="font-style:italic;font-size:75%">
<rect x="612" y="248" width="16" height="20" style="fill-opacity:0.3;fill:green"/>
<text x="633" y="263" style="text-anchor:start">-41.59%</text>
</g>
<text x="100" y="268" style="text-anchor:start">BenchmarkFrequent100-8</text>
<g style="font-style:italic;font-size:75%">
<rect x="612" y="274" width="16" height="20" style="fill-opacity:0.3;fill:green"/>
<text x="633" y="289" style="text-anchor:start">-42.21%</text>
</g>
<text x="100" y="294" style="text-anchor:start">BenchmarkAbsent100-8</text>
<g style="font-style:italic;font-size:75%">
<rect x="612" y="300" width="16" height="20" style="fill-opacity:0.3;fill:green"/>
<text x="633" y="315" style="text-anchor:start">-41.39%</text>
</g>
<text x="100" y="320" style="text-anchor:start">BenchmarkFrequentLetter100-8</text>
</g>
</svg>
